{
    "asset" : {
        "generator" : "Khronos glTF Blender I/O v1.0.5",
        "version" : "2.0"
    },
    "scene" : 0,
    "scenes" : [
        {
            "name" : "Scene",
            "nodes" : [
                0,
                1,
                2,
                3
            ]
        }
    ],
    "nodes" : [
        {
            "name" : "Light",
            "rotation" : [
                0.16907575726509094,
                0.7558803558349609,
                -0.27217137813568115,
                0.570947527885437
            ],
            "translation" : [
                4.076245307922363,
                5.903861999511719,
                -1.0054539442062378
            ]
        },
        {
            "name" : "Camera",
            "rotation" : [
                0.483536034822464,
                0.33687159419059753,
                -0.20870360732078552,
                0.7804827094078064
            ],
            "translation" : [
                7.358891487121582,
                4.958309173583984,
                6.925790786743164
            ]
        },
        {
            "mesh" : 0,
            "name" : "Dog",
            "rotation" : [
                0.7071068286895752,
                0,
                0,
                0.7071067094802856
            ],
            "scale" : [
                3.8418238162994385,
                3.8418238162994385,
                3.8418238162994385
            ]
        },
        {
            "mesh" : 1,
            "name" : "Sphere",
            "rotation" : [
                0.7071067690849304,
                0,
                0,
                0.7071068286895752
            ],
            "scale" : [
                -0.07792068272829056,
                -0.07792068272829056,
                -0.07792068272829056
            ],
            "translation" : [
                0.19211947917938232,
                2.3298609256744385,
                2.415187358856201
            ]
        }
    ],
    "materials" : [
        {
            "doubleSided" : true,
            "name" : "Dog",
            "pbrMetallicRoughness" : {
                "baseColorTexture" : {
                    "index" : 0,
                    "texCoord" : 0
                },
                "metallicFactor" : 1,
                "roughnessFactor" : 1
            }
        }
    ],
    "meshes" : [
        {
            "name" : "Dog",
            "primitives" : [
                {
                    "attributes" : {
                        "POSITION" : 0,
                        "NORMAL" : 1,
                        "TEXCOORD_0" : 2
                    },
                    "indices" : 3,
                    "material" : 0
                }
            ]
        },
        {
            "name" : "Sphere",
            "primitives" : [
                {
                    "attributes" : {
                        "POSITION" : 4,
                        "NORMAL" : 5,
                        "TEXCOORD_0" : 6
                    },
                    "indices" : 7
                }
            ]
        }
    ],
    "textures" : [
        {
            "source" : 0
        }
    ],
    "images" : [
        {
            "mimeType" : "image/png",
            "name" : "Dog Base Color",
            "uri" : "Dog Base Color.png"
        }
    ],
    "accessors" : [
        {
            "bufferView" : 0,
            "componentType" : 5126,
            "count" : 15501,
            "max" : [
                0.2579460144042969,
                0.7723470330238342,
                0.38796937465667725
            ],
            "min" : [
                -0.2579460144042969,
                -0.6717190742492676,
                -0.7214008569717407
            ],
            "type" : "VEC3"
        },
        {
            "bufferView" : 1,
            "componentType" : 5126,
            "count" : 15501,
            "type" : "VEC3"
        },
        {
            "bufferView" : 2,
            "componentType" : 5126,
            "count" : 15501,
            "type" : "VEC2"
        },
        {
            "bufferView" : 3,
            "componentType" : 5123,
            "count" : 90528,
            "type" : "SCALAR"
        },
        {
            "bufferView" : 4,
            "componentType" : 5126,
            "count" : 1118,
            "max" : [
                5.800000190734863,
                1,
                1.0000003576278687
            ],
            "min" : [
                -0.9999998211860657,
                -1,
                -1
            ],
            "type" : "VEC3"
        },
        {
            "bufferView" : 5,
            "componentType" : 5126,
            "count" : 1118,
            "type" : "VEC3"
        },
        {
            "bufferView" : 6,
            "componentType" : 5126,
            "count" : 1118,
            "type" : "VEC2"
        },
        {
            "bufferView" : 7,
            "componentType" : 5123,
            "count" : 5760,
            "type" : "SCALAR"
        }
    ],
    "bufferViews" : [
        {
            "buffer" : 0,
            "byteLength" : 186012,
            "byteOffset" : 0
        },
        {
            "buffer" : 0,
            "byteLength" : 186012,
            "byteOffset" : 186012
        },
        {
            "buffer" : 0,
            "byteLength" : 124008,
            "byteOffset" : 372024
        },
        {
            "buffer" : 0,
            "byteLength" : 181056,
            "byteOffset" : 496032
        },
        {
            "buffer" : 0,
            "byteLength" : 13416,
            "byteOffset" : 677088
        },
        {
            "buffer" : 0,
            "byteLength" : 13416,
            "byteOffset" : 690504
        },
        {
            "buffer" : 0,
            "byteLength" : 8944,
            "byteOffset" : 703920
        },
        {
            "buffer" : 0,
            "byteLength" : 11520,
            "byteOffset" : 712864
        }
    ],
    "buffers" : [
        {
            "byteLength" : 724384,
            "uri" : "TestSmily.bin"
        }
    ]
}
