{
    "asset" : {
        "generator" : "Khronos glTF Blender I/O v1.0.5",
        "version" : "2.0"
    },
    "scene" : 0,
    "scenes" : [
        {
            "name" : "Scene",
            "nodes" : [
                0,
                1,
                2,
                3
            ]
        }
    ],
    "nodes" : [
        {
            "name" : "Light",
            "rotation" : [
                0.16907575726509094,
                0.7558803558349609,
                -0.27217137813568115,
                0.570947527885437
            ],
            "translation" : [
                4.076245307922363,
                5.903861999511719,
                -1.0054539442062378
            ]
        },
        {
            "name" : "Camera",
            "rotation" : [
                0.483536034822464,
                0.33687159419059753,
                -0.20870360732078552,
                0.7804827094078064
            ],
            "translation" : [
                7.358891487121582,
                4.958309173583984,
                6.925790786743164
            ]
        },
        {
            "mesh" : 0,
            "name" : "Dog",
            "rotation" : [
                0.7071068286895752,
                0,
                0,
                0.7071067094802856
            ],
            "scale" : [
                3.8418238162994385,
                3.8418238162994385,
                3.8418238162994385
            ]
        },
        {
            "mesh" : 1,
            "name" : "Sphere",
            "rotation" : [
                0.7071067690849304,
                0,
                0,
                0.7071068286895752
            ],
            "scale" : [
                -0.07792068272829056,
                -0.07792068272829056,
                -0.07792068272829056
            ],
            "translation" : [
                0.19211947917938232,
                2.3298609256744385,
                2.415187358856201
            ]
        }
    ],
    "materials" : [
        {
            "doubleSided" : true,
            "name" : "Dog",
            "pbrMetallicRoughness" : {
                "baseColorFactor" : [
                    0.5,
                    0.5,
                    0.5,
                    1
                ],
                "metallicFactor" : 1,
                "roughnessFactor" : 1
            }
        }
    ],
    "meshes" : [
        {
            "name" : "Dog",
            "primitives" : [
                {
                    "attributes" : {
                        "POSITION" : 0,
                        "NORMAL" : 1
                    },
                    "indices" : 2,
                    "material" : 0
                }
            ]
        },
        {
            "name" : "Sphere",
            "primitives" : [
                {
                    "attributes" : {
                        "POSITION" : 3,
                        "NORMAL" : 4,
                        "TEXCOORD_0" : 5
                    },
                    "indices" : 6
                }
            ]
        }
    ],
    "accessors" : [
        {
            "bufferView" : 0,
            "componentType" : 5126,
            "count" : 15117,
            "max" : [
                0.25794556736946106,
                0.772350013256073,
                0.38795819878578186
            ],
            "min" : [
                -0.25794556736946106,
                -0.6058849096298218,
                -0.721430778503418
            ],
            "type" : "VEC3"
        },
        {
            "bufferView" : 1,
            "componentType" : 5126,
            "count" : 15117,
            "type" : "VEC3"
        },
        {
            "bufferView" : 2,
            "componentType" : 5123,
            "count" : 90528,
            "type" : "SCALAR"
        },
        {
            "bufferView" : 3,
            "componentType" : 5126,
            "count" : 1984,
            "max" : [
                1.000000238418579,
                1,
                1.0000003576278687
            ],
            "min" : [
                -0.9999998211860657,
                -1,
                -1
            ],
            "type" : "VEC3"
        },
        {
            "bufferView" : 4,
            "componentType" : 5126,
            "count" : 1984,
            "type" : "VEC3"
        },
        {
            "bufferView" : 5,
            "componentType" : 5126,
            "count" : 1984,
            "type" : "VEC2"
        },
        {
            "bufferView" : 6,
            "componentType" : 5123,
            "count" : 2880,
            "type" : "SCALAR"
        }
    ],
    "bufferViews" : [
        {
            "buffer" : 0,
            "byteLength" : 181404,
            "byteOffset" : 0
        },
        {
            "buffer" : 0,
            "byteLength" : 181404,
            "byteOffset" : 181404
        },
        {
            "buffer" : 0,
            "byteLength" : 181056,
            "byteOffset" : 362808
        },
        {
            "buffer" : 0,
            "byteLength" : 23808,
            "byteOffset" : 543864
        },
        {
            "buffer" : 0,
            "byteLength" : 23808,
            "byteOffset" : 567672
        },
        {
            "buffer" : 0,
            "byteLength" : 15872,
            "byteOffset" : 591480
        },
        {
            "buffer" : 0,
            "byteLength" : 5760,
            "byteOffset" : 607352
        }
    ],
    "buffers" : [
        {
            "byteLength" : 613112,
            "uri" : "data:application/octet-stream;base64,"
        }
    ]
}
