{
    "asset" : {
        "generator" : "Khronos glTF Blender I/O v0.9.36",
        "version" : "2.0"
    },
    "scene" : 0,
    "scenes" : [
        {
            "name" : "Scene",
            "nodes" : [
                0,
                1,
                2,
                3,
                4,
                5,
                6,
                7,
                8,
                9
            ]
        }
    ],
    "nodes" : [
        {
            "mesh" : 0,
            "name" : "ClotjB",
            "rotation" : [
                0.7071068286895752,
                0,
                0,
                0.7071067094802856
            ]
        },
        {
            "mesh" : 1,
            "name" : "Hair_001",
            "rotation" : [
                0.7071068286895752,
                0,
                0,
                0.7071067094802856
            ]
        },
        {
            "mesh" : 2,
            "name" : "Hair_007",
            "rotation" : [
                0.7071068286895752,
                0,
                0,
                0.7071067094802856
            ]
        },
        {
            "mesh" : 3,
            "name" : "Hair_002",
            "rotation" : [
                0.7071068286895752,
                0,
                0,
                0.7071067094802856
            ]
        },
        {
            "mesh" : 4,
            "name" : "Hair_006",
            "rotation" : [
                0.7071068286895752,
                0,
                0,
                0.7071067094802856
            ]
        },
        {
            "mesh" : 5,
            "name" : "Hair_003",
            "rotation" : [
                0.7071068286895752,
                0,
                0,
                0.7071067094802856
            ]
        },
        {
            "mesh" : 6,
            "name" : "Hair_005",
            "rotation" : [
                0.7071068286895752,
                0,
                0,
                0.7071067094802856
            ]
        },
        {
            "mesh" : 7,
            "name" : "Hair_004",
            "rotation" : [
                0.7071068286895752,
                0,
                0,
                0.7071067094802856
            ]
        },
        {
            "mesh" : 8,
            "name" : "ClothA",
            "rotation" : [
                0.7071068286895752,
                0,
                0,
                0.7071067094802856
            ]
        },
        {
            "mesh" : 9,
            "name" : "Body",
            "rotation" : [
                0.7071068286895752,
                0,
                0,
                0.7071067094802856
            ]
        }
    ],
    "materials" : [
        {
            "doubleSided" : true,
            "emissiveFactor" : [
                0,
                0,
                0
            ],
            "name" : "ClothA",
            "normalTexture" : {
                "index" : 0,
                "texCoord" : 0
            },
            "pbrMetallicRoughness" : {
                "baseColorTexture" : {
                    "index" : 1,
                    "texCoord" : 0
                },
                "metallicRoughnessTexture" : {
                    "index" : 2,
                    "texCoord" : 0
                }
            }
        },
        {
            "doubleSided" : true,
            "emissiveFactor" : [
                0,
                0,
                0
            ],
            "name" : "Hair",
            "normalTexture" : {
                "index" : 3,
                "texCoord" : 0
            },
            "occlusionTexture" : {
                "index" : 4,
                "texCoord" : 0
            },
            "pbrMetallicRoughness" : {
                "baseColorTexture" : {
                    "index" : 5,
                    "texCoord" : 0
                },
                "metallicRoughnessTexture" : {
                    "index" : 4,
                    "texCoord" : 0
                }
            }
        },
        {
            "doubleSided" : true,
            "emissiveFactor" : [
                0,
                0,
                0
            ],
            "name" : "ClothB",
            "normalTexture" : {
                "index" : 6,
                "texCoord" : 0
            },
            "occlusionTexture" : {
                "index" : 7,
                "texCoord" : 0
            },
            "pbrMetallicRoughness" : {
                "baseColorTexture" : {
                    "index" : 8,
                    "texCoord" : 0
                },
                "metallicRoughnessTexture" : {
                    "index" : 7,
                    "texCoord" : 0
                }
            }
        },
        {
            "emissiveFactor" : [
                0,
                0,
                0
            ],
            "name" : "Body",
            "normalTexture" : {
                "index" : 9,
                "texCoord" : 0
            },
            "occlusionTexture" : {
                "index" : 10,
                "texCoord" : 0
            },
            "pbrMetallicRoughness" : {
                "baseColorTexture" : {
                    "index" : 11,
                    "texCoord" : 0
                },
                "metallicRoughnessTexture" : {
                    "index" : 10,
                    "texCoord" : 0
                }
            }
        }
    ],
    "meshes" : [
        {
            "name" : "ClotjB",
            "primitives" : [
                {
                    "attributes" : {
                        "POSITION" : 0,
                        "NORMAL" : 1,
                        "TEXCOORD_0" : 2
                    },
                    "indices" : 3,
                    "material" : 0
                }
            ]
        },
        {
            "name" : "Hair_001",
            "primitives" : [
                {
                    "attributes" : {
                        "POSITION" : 4,
                        "NORMAL" : 5,
                        "TEXCOORD_0" : 6
                    },
                    "indices" : 7,
                    "material" : 1
                }
            ]
        },
        {
            "name" : "Hair_007",
            "primitives" : [
                {
                    "attributes" : {
                        "POSITION" : 8,
                        "NORMAL" : 9,
                        "TEXCOORD_0" : 10
                    },
                    "indices" : 11,
                    "material" : 1
                }
            ]
        },
        {
            "name" : "Hair_002",
            "primitives" : [
                {
                    "attributes" : {
                        "POSITION" : 12,
                        "NORMAL" : 13,
                        "TEXCOORD_0" : 14
                    },
                    "indices" : 15,
                    "material" : 1
                }
            ]
        },
        {
            "name" : "Hair_006",
            "primitives" : [
                {
                    "attributes" : {
                        "POSITION" : 16,
                        "NORMAL" : 17,
                        "TEXCOORD_0" : 18
                    },
                    "indices" : 19,
                    "material" : 1
                }
            ]
        },
        {
            "name" : "Hair_003",
            "primitives" : [
                {
                    "attributes" : {
                        "POSITION" : 20,
                        "NORMAL" : 21,
                        "TEXCOORD_0" : 22
                    },
                    "indices" : 23,
                    "material" : 1
                }
            ]
        },
        {
            "name" : "Hair_005",
            "primitives" : [
                {
                    "attributes" : {
                        "POSITION" : 24,
                        "NORMAL" : 25,
                        "TEXCOORD_0" : 26
                    },
                    "indices" : 27,
                    "material" : 1
                }
            ]
        },
        {
            "name" : "Hair_004",
            "primitives" : [
                {
                    "attributes" : {
                        "POSITION" : 28,
                        "NORMAL" : 29,
                        "TEXCOORD_0" : 30
                    },
                    "indices" : 31,
                    "material" : 1
                }
            ]
        },
        {
            "name" : "ClothA",
            "primitives" : [
                {
                    "attributes" : {
                        "POSITION" : 32,
                        "NORMAL" : 33,
                        "TEXCOORD_0" : 34
                    },
                    "indices" : 35,
                    "material" : 2
                }
            ]
        },
        {
            "name" : "Body",
            "primitives" : [
                {
                    "attributes" : {
                        "POSITION" : 36,
                        "NORMAL" : 37,
                        "TEXCOORD_0" : 38
                    },
                    "indices" : 39,
                    "material" : 3
                }
            ]
        }
    ],
    "textures" : [
        {
            "source" : 0
        },
        {
            "source" : 1
        },
        {
            "source" : 2
        },
        {
            "source" : 3
        },
        {
            "source" : 4
        },
        {
            "source" : 5
        },
        {
            "source" : 6
        },
        {
            "source" : 7
        },
        {
            "source" : 8
        },
        {
            "source" : 9
        },
        {
            "source" : 10
        },
        {
            "source" : 11
        }
    ],
    "images" : [
        {
            "mimeType" : "image/png",
            "name" : "Image_1",
            "uri" : "Image_1.png"
        },
        {
            "mimeType" : "image/png",
            "name" : "Image_2",
            "uri" : "Image_2.png"
        },
        {
            "mimeType" : "image/png",
            "name" : "Image_0",
            "uri" : "Image_0.png"
        },
        {
            "mimeType" : "image/png",
            "name" : "Image_4",
            "uri" : "Image_4.png"
        },
        {
            "mimeType" : "image/png",
            "name" : "Image_5-Image_3",
            "uri" : "Image_5-Image_3.png"
        },
        {
            "mimeType" : "image/png",
            "name" : "Image_6",
            "uri" : "Image_6.png"
        },
        {
            "mimeType" : "image/png",
            "name" : "Image_8",
            "uri" : "Image_8.png"
        },
        {
            "mimeType" : "image/png",
            "name" : "Image_9-Image_7",
            "uri" : "Image_9-Image_7.png"
        },
        {
            "mimeType" : "image/png",
            "name" : "Image_10",
            "uri" : "Image_10.png"
        },
        {
            "mimeType" : "image/png",
            "name" : "Image_12",
            "uri" : "Image_12.png"
        },
        {
            "mimeType" : "image/png",
            "name" : "Image_13-Image_11",
            "uri" : "Image_13-Image_11.png"
        },
        {
            "mimeType" : "image/png",
            "name" : "Image_14",
            "uri" : "Image_14.png"
        }
    ],
    "accessors" : [
        {
            "bufferView" : 0,
            "componentType" : 5126,
            "count" : 55448,
            "max" : [
                86.84236145019531,
                24.149690628051758,
                0.022623570635914803
            ],
            "min" : [
                -86.84236145019531,
                -16.0059757232666,
                -189.37838745117188
            ],
            "type" : "VEC3"
        },
        {
            "bufferView" : 1,
            "componentType" : 5126,
            "count" : 55448,
            "type" : "VEC3"
        },
        {
            "bufferView" : 2,
            "componentType" : 5126,
            "count" : 55448,
            "type" : "VEC2"
        },
        {
            "bufferView" : 3,
            "componentType" : 5123,
            "count" : 180894,
            "type" : "SCALAR"
        },
        {
            "bufferView" : 4,
            "componentType" : 5126,
            "count" : 408,
            "max" : [
                10.342910766601562,
                26.4698543548584,
                -106.5961685180664
            ],
            "min" : [
                -10.454472541809082,
                1.8686301708221436,
                -185.7299346923828
            ],
            "type" : "VEC3"
        },
        {
            "bufferView" : 5,
            "componentType" : 5126,
            "count" : 408,
            "type" : "VEC3"
        },
        {
            "bufferView" : 6,
            "componentType" : 5126,
            "count" : 408,
            "type" : "VEC2"
        },
        {
            "bufferView" : 7,
            "componentType" : 5123,
            "count" : 1536,
            "type" : "SCALAR"
        },
        {
            "bufferView" : 8,
            "componentType" : 5126,
            "count" : 264,
            "max" : [
                6.493678569793701,
                -9.607717514038086,
                -97.45710754394531
            ],
            "min" : [
                -5.454835891723633,
                -41.741004943847656,
                -187.44662475585938
            ],
            "type" : "VEC3"
        },
        {
            "bufferView" : 9,
            "componentType" : 5126,
            "count" : 264,
            "type" : "VEC3"
        },
        {
            "bufferView" : 10,
            "componentType" : 5126,
            "count" : 264,
            "type" : "VEC2"
        },
        {
            "bufferView" : 11,
            "componentType" : 5123,
            "count" : 960,
            "type" : "SCALAR"
        },
        {
            "bufferView" : 12,
            "componentType" : 5126,
            "count" : 1835,
            "max" : [
                9.384919166564941,
                14.002573013305664,
                -174.2265625
            ],
            "min" : [
                -9.384922981262207,
                -6.920132160186768,
                -195.08291625976562
            ],
            "type" : "VEC3"
        },
        {
            "bufferView" : 13,
            "componentType" : 5126,
            "count" : 1835,
            "type" : "VEC3"
        },
        {
            "bufferView" : 14,
            "componentType" : 5126,
            "count" : 1835,
            "type" : "VEC2"
        },
        {
            "bufferView" : 15,
            "componentType" : 5123,
            "count" : 10560,
            "type" : "SCALAR"
        },
        {
            "bufferView" : 16,
            "componentType" : 5126,
            "count" : 912,
            "max" : [
                13.820873260498047,
                4.309951305389404,
                -98.71432495117188
            ],
            "min" : [
                -12.999484062194824,
                -38.04252624511719,
                -191.18360900878906
            ],
            "type" : "VEC3"
        },
        {
            "bufferView" : 17,
            "componentType" : 5126,
            "count" : 912,
            "type" : "VEC3"
        },
        {
            "bufferView" : 18,
            "componentType" : 5126,
            "count" : 912,
            "type" : "VEC2"
        },
        {
            "bufferView" : 19,
            "componentType" : 5123,
            "count" : 3456,
            "type" : "SCALAR"
        },
        {
            "bufferView" : 20,
            "componentType" : 5126,
            "count" : 612,
            "max" : [
                10.646957397460938,
                14.239862442016602,
                -181.5156707763672
            ],
            "min" : [
                -10.716736793518066,
                -12.458117485046387,
                -196.86073303222656
            ],
            "type" : "VEC3"
        },
        {
            "bufferView" : 21,
            "componentType" : 5126,
            "count" : 612,
            "type" : "VEC3"
        },
        {
            "bufferView" : 22,
            "componentType" : 5126,
            "count" : 612,
            "type" : "VEC2"
        },
        {
            "bufferView" : 23,
            "componentType" : 5123,
            "count" : 2304,
            "type" : "SCALAR"
        },
        {
            "bufferView" : 24,
            "componentType" : 5126,
            "count" : 534,
            "max" : [
                0.7951802611351013,
                29.800024032592773,
                -90.66426849365234
            ],
            "min" : [
                -20.538822174072266,
                5.6961188316345215,
                -196.55332946777344
            ],
            "type" : "VEC3"
        },
        {
            "bufferView" : 25,
            "componentType" : 5126,
            "count" : 534,
            "type" : "VEC3"
        },
        {
            "bufferView" : 26,
            "componentType" : 5126,
            "count" : 534,
            "type" : "VEC2"
        },
        {
            "bufferView" : 27,
            "componentType" : 5123,
            "count" : 2016,
            "type" : "SCALAR"
        },
        {
            "bufferView" : 28,
            "componentType" : 5126,
            "count" : 456,
            "max" : [
                15.052776336669922,
                14.733855247497559,
                -97.37010955810547
            ],
            "min" : [
                -2.1563568115234375,
                -37.532127380371094,
                -196.53250122070312
            ],
            "type" : "VEC3"
        },
        {
            "bufferView" : 29,
            "componentType" : 5126,
            "count" : 456,
            "type" : "VEC3"
        },
        {
            "bufferView" : 30,
            "componentType" : 5126,
            "count" : 456,
            "type" : "VEC2"
        },
        {
            "bufferView" : 31,
            "componentType" : 5123,
            "count" : 1728,
            "type" : "SCALAR"
        },
        {
            "bufferView" : 32,
            "componentType" : 5126,
            "count" : 22868,
            "max" : [
                73.11074829101562,
                28.153423309326172,
                -0.09543811529874802
            ],
            "min" : [
                -78.7908935546875,
                -45.26380157470703,
                -168.4505615234375
            ],
            "type" : "VEC3"
        },
        {
            "bufferView" : 33,
            "componentType" : 5126,
            "count" : 22868,
            "type" : "VEC3"
        },
        {
            "bufferView" : 34,
            "componentType" : 5126,
            "count" : 22868,
            "type" : "VEC2"
        },
        {
            "bufferView" : 35,
            "componentType" : 5123,
            "count" : 127812,
            "type" : "SCALAR"
        },
        {
            "bufferView" : 36,
            "componentType" : 5126,
            "count" : 6621,
            "max" : [
                98.38117218017578,
                16.305885314941406,
                -148.79531860351562
            ],
            "min" : [
                -98.38117218017578,
                -7.7072577476501465,
                -194.8347625732422
            ],
            "type" : "VEC3"
        },
        {
            "bufferView" : 37,
            "componentType" : 5126,
            "count" : 6621,
            "type" : "VEC3"
        },
        {
            "bufferView" : 38,
            "componentType" : 5126,
            "count" : 6621,
            "type" : "VEC2"
        },
        {
            "bufferView" : 39,
            "componentType" : 5123,
            "count" : 33666,
            "type" : "SCALAR"
        }
    ],
    "bufferViews" : [
        {
            "buffer" : 0,
            "byteLength" : 665376,
            "byteOffset" : 0
        },
        {
            "buffer" : 0,
            "byteLength" : 665376,
            "byteOffset" : 665376
        },
        {
            "buffer" : 0,
            "byteLength" : 443584,
            "byteOffset" : 1330752
        },
        {
            "buffer" : 0,
            "byteLength" : 361788,
            "byteOffset" : 1774336
        },
        {
            "buffer" : 0,
            "byteLength" : 4896,
            "byteOffset" : 2136124
        },
        {
            "buffer" : 0,
            "byteLength" : 4896,
            "byteOffset" : 2141020
        },
        {
            "buffer" : 0,
            "byteLength" : 3264,
            "byteOffset" : 2145916
        },
        {
            "buffer" : 0,
            "byteLength" : 3072,
            "byteOffset" : 2149180
        },
        {
            "buffer" : 0,
            "byteLength" : 3168,
            "byteOffset" : 2152252
        },
        {
            "buffer" : 0,
            "byteLength" : 3168,
            "byteOffset" : 2155420
        },
        {
            "buffer" : 0,
            "byteLength" : 2112,
            "byteOffset" : 2158588
        },
        {
            "buffer" : 0,
            "byteLength" : 1920,
            "byteOffset" : 2160700
        },
        {
            "buffer" : 0,
            "byteLength" : 22020,
            "byteOffset" : 2162620
        },
        {
            "buffer" : 0,
            "byteLength" : 22020,
            "byteOffset" : 2184640
        },
        {
            "buffer" : 0,
            "byteLength" : 14680,
            "byteOffset" : 2206660
        },
        {
            "buffer" : 0,
            "byteLength" : 21120,
            "byteOffset" : 2221340
        },
        {
            "buffer" : 0,
            "byteLength" : 10944,
            "byteOffset" : 2242460
        },
        {
            "buffer" : 0,
            "byteLength" : 10944,
            "byteOffset" : 2253404
        },
        {
            "buffer" : 0,
            "byteLength" : 7296,
            "byteOffset" : 2264348
        },
        {
            "buffer" : 0,
            "byteLength" : 6912,
            "byteOffset" : 2271644
        },
        {
            "buffer" : 0,
            "byteLength" : 7344,
            "byteOffset" : 2278556
        },
        {
            "buffer" : 0,
            "byteLength" : 7344,
            "byteOffset" : 2285900
        },
        {
            "buffer" : 0,
            "byteLength" : 4896,
            "byteOffset" : 2293244
        },
        {
            "buffer" : 0,
            "byteLength" : 4608,
            "byteOffset" : 2298140
        },
        {
            "buffer" : 0,
            "byteLength" : 6408,
            "byteOffset" : 2302748
        },
        {
            "buffer" : 0,
            "byteLength" : 6408,
            "byteOffset" : 2309156
        },
        {
            "buffer" : 0,
            "byteLength" : 4272,
            "byteOffset" : 2315564
        },
        {
            "buffer" : 0,
            "byteLength" : 4032,
            "byteOffset" : 2319836
        },
        {
            "buffer" : 0,
            "byteLength" : 5472,
            "byteOffset" : 2323868
        },
        {
            "buffer" : 0,
            "byteLength" : 5472,
            "byteOffset" : 2329340
        },
        {
            "buffer" : 0,
            "byteLength" : 3648,
            "byteOffset" : 2334812
        },
        {
            "buffer" : 0,
            "byteLength" : 3456,
            "byteOffset" : 2338460
        },
        {
            "buffer" : 0,
            "byteLength" : 274416,
            "byteOffset" : 2341916
        },
        {
            "buffer" : 0,
            "byteLength" : 274416,
            "byteOffset" : 2616332
        },
        {
            "buffer" : 0,
            "byteLength" : 182944,
            "byteOffset" : 2890748
        },
        {
            "buffer" : 0,
            "byteLength" : 255624,
            "byteOffset" : 3073692
        },
        {
            "buffer" : 0,
            "byteLength" : 79452,
            "byteOffset" : 3329316
        },
        {
            "buffer" : 0,
            "byteLength" : 79452,
            "byteOffset" : 3408768
        },
        {
            "buffer" : 0,
            "byteLength" : 52968,
            "byteOffset" : 3488220
        },
        {
            "buffer" : 0,
            "byteLength" : 67332,
            "byteOffset" : 3541188
        }
    ],
    "buffers" : [
        {
            "byteLength" : 3608520,
            "uri" : "YSC.bin"
        }
    ]
}
